Coordinates
version=1
nRows=10
nColumns=40
inDegrees=yes

Units are S.I. units (second, meters, Newtons, ...)
Angles are in degrees.

endheader
time	pelvis_tilt	pelvis_list	pelvis_rotation	pelvis_tx	pelvis_ty	pelvis_tz	hip_flexion_r	hip_adduction_r	hip_rotation_r	knee_angle_r	knee_angle_r_beta	ankle_angle_r	subtalar_angle_r	mtp_angle_r	hip_flexion_l	hip_adduction_l	hip_rotation_l	knee_angle_l	knee_angle_l_beta	ankle_angle_l	subtalar_angle_l	mtp_angle_l	lumbar_extension	lumbar_bending	lumbar_rotation	arm_flex_r	arm_add_r	arm_rot_r	elbow_flex_r	pro_sup_r	wrist_flex_r	wrist_dev_r	arm_flex_l	arm_add_l	arm_rot_l	elbow_flex_l	pro_sup_l	wrist_flex_l	wrist_dev_l
     18.26250000	     -2.83556021	     -5.35387784	     -0.55645897	      0.98983417	      0.92197553	      0.48221241	     21.23509200	      2.43789105	    -13.48348881	     20.82227095	     20.82227095	      5.00700173	     -4.04177523	     -3.42274155	      4.14320293	    -10.16811091	     -7.61116798	     40.13758475	     40.13758475	     12.62514121	    -15.18385634	     -9.23322017	     -9.67206154	      7.58547890	      1.66002525	     -6.15708057	    -12.33844217	     -4.08153539	     27.15547037	     45.98855598	      0.00000000	      0.00000000	     15.91904300	    -13.14591345	    -10.04142505	     82.53496904	     47.83811114	      0.00000000	      0.00000000
     18.27485714	     -2.74616102	     -5.58744168	     -0.25912317	      0.98961777	      0.92288663	      0.48395087	     20.44057771	      2.72305007	    -13.99517204	     20.51389804	     20.51389804	      5.45148302	     -3.57378721	     -3.66449873	      6.19116180	    -10.92112729	     -6.89744036	     44.29518093	     44.29518093	     10.64692238	    -16.48254318	     -8.96777375	     -9.78614856	      7.85030062	      1.77200931	     -4.38636222	    -12.62748157	     -4.08010114	     27.90769737	     45.97451556	      0.00000000	      0.00000000	     15.34982424	    -12.84183200	     -9.71100462	     81.58921504	     47.79895301	      0.00000000	      0.00000000
     18.28721429	     -2.86487061	     -5.79437765	      0.09643279	      0.98921921	      0.92336377	      0.48548014	     19.81737389	      2.94080545	    -14.67156265	     20.09529331	     20.09529331	      5.84379939	     -2.84678139	     -4.01442447	      8.65748474	    -11.56988702	     -6.01753362	     48.50749752	     48.50749752	      8.95630814	    -17.53035782	     -7.82167441	     -9.60279288	      8.13330098	      1.70123670	     -2.65817473	    -12.91223380	     -4.04129432	     28.77225155	     45.95319181	      0.00000000	      0.00000000	     14.60930755	    -12.67375959	     -9.31781112	     79.98419410	     47.74515729	      0.00000000	      0.00000000
     18.29957143	     -2.85168195	     -5.88544916	      0.38632435	      0.98864233	      0.92395513	      0.48684660	     19.12958632	      2.98695198	    -15.48439732	     19.82311102	     19.82311102	      6.18624476	     -1.78157648	     -4.88485383	     11.16620101	    -11.87947982	     -4.94196170	     52.88945681	     52.88945681	      9.42390749	    -17.63429556	     -1.27954118	     -9.58417528	      8.27612592	      2.10533852	     -1.10395731	    -13.37999545	     -3.59912736	     29.96863654	     45.89615048	      0.00000000	      0.00000000	     14.70332398	    -12.26755416	     -8.47092456	     76.90186204	     47.65817828	      0.00000000	      0.00000000
     18.31192857	     -2.85280956	     -6.12113786	      0.65355314	      0.98790438	      0.92439818	      0.48838708	     18.45065624	      3.31122015	    -15.91816634	     19.45822085	     19.45822085	      6.48016012	     -1.41098978	     -5.19602720	     13.62914793	    -12.42821129	     -4.08188971	     56.75647861	     56.75647861	      9.22208798	    -17.84940335	      2.89054870	     -9.61951267	      8.53560609	      2.34207328	      0.65496765	    -13.76900653	     -3.42951541	     31.16234132	     45.85955063	      0.00000000	      0.00000000	     14.15626371	    -12.07220112	     -7.70104352	     75.15276950	     47.59357222	      0.00000000	      0.00000000
     18.32428571	     -2.81375465	     -6.38682493	      0.86339455	      0.98708778	      0.92482580	      0.49003749	     17.76429541	      3.70454772	    -16.22246680	     19.14344905	     19.14344905	      6.83391468	     -1.10361346	     -5.31833416	     15.85854182	    -13.09207186	     -3.47485828	     59.89777088	     59.89777088	      8.04160416	    -18.28112983	      3.48192614	     -9.77502527	      8.74907417	      2.78723010	      2.60726834	    -14.17251172	     -3.47646147	     31.91370453	     45.84927686	      0.00000000	      0.00000000	     13.40370019	    -11.56769518	     -7.31055659	     74.28317644	     47.54950915	      0.00000000	      0.00000000
     18.33664286	     -2.87412085	     -6.49847066	      1.08978563	      0.98609111	      0.92526409	      0.49138687	     17.15133077	      3.88188563	    -16.70560186	     18.75454907	     18.75454907	      7.10646861	     -0.45438743	     -5.68890964	     18.36618439	    -13.31870143	     -2.58540429	     62.96705965	     62.96705965	      9.07531457	    -18.18593302	      9.33294516	     -9.68154965	      8.86941271	      3.23117953	      4.48578535	    -14.59718116	     -3.12815572	     32.72266050	     45.82013054	      0.00000000	      0.00000000	     13.40086085	    -11.19097721	     -6.41102864	     70.68672000	     47.44681822	      0.00000000	      0.00000000
     18.34900000	     -2.84622847	     -6.68614124	      1.30386961	      0.98504500	      0.92576542	      0.49286609	     16.47122329	      4.21638965	    -16.92371906	     18.37672020	     18.37672020	      7.41542458	     -0.24556697	     -5.74156688	     20.50096100	    -13.76490361	     -1.98262781	     65.11642122	     65.11642122	      8.48605617	    -18.44022256	      9.64078179	     -9.81822472	      8.99412416	      3.37971939	      6.66280359	    -14.88596228	     -3.20947060	     33.67306177	     45.80531089	      0.00000000	      0.00000000	     12.42445482	    -10.96422543	     -6.01367081	     69.43406735	     47.39260533	      0.00000000	      0.00000000
     18.36135714	     -2.78379845	     -6.68696782	      1.49643794	      0.98391877	      0.92654391	      0.49415494	     15.71980204	      4.35012893	    -17.11012490	     17.93636956	     17.93636956	      7.67322939	      0.09245411	     -5.93779301	     22.51983849	    -13.88048562	     -1.40431682	     66.77650521	     66.77650521	      8.86544047	    -18.50914793	     11.83521925	     -9.92745263	      8.92274624	      3.64581417	      8.96228579	    -15.16980975	     -2.94295804	     34.37092365	     45.78517352	      0.00000000	      0.00000000	     12.24208870	    -10.63806585	     -5.35882710	     65.85684153	     47.29845402	      0.00000000	      0.00000000
     18.37371429	     -2.71956022	     -6.66957231	      1.70346393	      0.98274390	      0.92737945	      0.49538931	     14.94298791	      4.50354101	    -17.16577883	     17.42704970	     17.42704970	      7.91985471	      0.23813756	     -5.97754537	     24.38962523	    -13.96587047	     -0.90892397	     67.78145817	     67.78145817	      8.91892544	    -18.59855877	     12.34803007	    -10.10528952	      8.80466422	      3.68705808	     11.29040037	    -15.31276525	     -2.92238734	     35.39930503	     45.76296772	      0.00000000	      0.00000000	     11.37428038	    -10.47788514	     -4.90173617	     63.77941209	     47.23068415	      0.00000000	      0.00000000
